<svg style="display: none;" aria-hidden="true" xmlns="http://www.w3.org/2000/svg" xmlns:xlink="http://www.w3.org/1999/xlink"><symbol viewBox="0 0 24 28" id="svg-android" xmlns="http://www.w3.org/2000/svg"><path d="M4.913 20.73c0 .685.56 1.245 1.248 1.245h1.427v3.527c0 .893.718 1.623 1.6 1.623.884 0 1.6-.727 1.6-1.623v-3.53h2.49v3.527c0 .893.717 1.623 1.599 1.623.885 0 1.6-.727 1.6-1.623v-3.527h1.426c.689 0 1.248-.56 1.248-1.245V9.148H4.913V20.73ZM15.375 3.147l1.315-1.904c.077-.111.059-.26-.044-.334-.102-.07-.248-.035-.325.076l-1.365 1.98a8.06 8.06 0 0 0-2.953-.55 8.059 8.059 0 0 0-2.953.55L7.685.99C7.608.878 7.462.84 7.359.913c-.102.07-.12.217-.044.334l1.316 1.904c-2.092.973-3.557 2.816-3.744 4.97h14.238c-.193-2.157-1.661-4-3.75-4.973ZM8.997 6.151a.788.788 0 1 1 0-1.576.788.788 0 0 1 0 1.576Zm6.105 0a.788.788 0 1 1 0-1.576.788.788 0 0 1 0 1.576Zm6.546 2.95c-.885 0-1.6.727-1.6 1.624v6.34c0 .893.718 1.622 1.6 1.622.884 0 1.6-.726 1.6-1.623v-6.342a1.604 1.604 0 0 0-1.6-1.62Zm-19.295 0c-.885 0-1.6.727-1.6 1.624v6.34c0 .893.718 1.622 1.6 1.622.884 0 1.6-.726 1.6-1.623v-6.342a1.61 1.61 0 0 0-1.6-1.62Z"/></symbol><symbol viewBox="0 0 28 18" id="svg-arrow" xmlns="http://www.w3.org/2000/svg"><path fill-rule="evenodd" clip-rule="evenodd" d="M27.125 9a.938.938 0 0 0-.938-.937H4.076l5.9-5.9A.939.939 0 1 0 8.65.837l-7.5 7.5a.937.937 0 0 0 0 1.328l7.5 7.5a.939.939 0 0 0 1.327-1.328l-5.9-5.898h22.111A.938.938 0 0 0 27.125 9Z"/></symbol><symbol viewBox="0 0 22 22" id="svg-fb" xmlns="http://www.w3.org/2000/svg"><path fill-rule="evenodd" clip-rule="evenodd" d="M21.5 11.064c0-5.799-4.702-10.5-10.5-10.5S.5 5.265.5 11.064c0 5.24 3.84 9.584 8.86 10.373V14.1H6.692v-3.036h2.666V8.75c0-2.63 1.568-4.085 3.966-4.085 1.15 0 2.351.205 2.351.205v2.584h-1.324c-1.304 0-1.712.81-1.712 1.641v1.969h2.912l-.465 3.036h-2.446v7.338c5.02-.788 8.859-5.132 8.859-10.374Z"/></symbol><symbol viewBox="0 0 20 20" id="svg-in" xmlns="http://www.w3.org/2000/svg"><path fill-rule="evenodd" clip-rule="evenodd" d="M7.429 6.969h3.714v1.85c.535-1.064 1.907-2.02 3.968-2.02 3.951 0 4.889 2.118 4.889 6.004V20h-4v-6.312c0-2.213-.535-3.461-1.897-3.461-1.889 0-2.674 1.345-2.674 3.46V20h-4V6.969ZM.57 19.83h4V6.799h-4V19.83ZM5.143 2.55a2.53 2.53 0 0 1-.753 1.802 2.59 2.59 0 0 1-3.638.001A2.548 2.548 0 0 1 0 2.55C0 1.873.27 1.225.753.747a2.583 2.583 0 0 1 3.637 0c.482.478.753 1.126.753 1.803Z"/></symbol><symbol viewBox="0 0 20 20" id="svg-inst" xmlns="http://www.w3.org/2000/svg"><path d="M10 6.876A3.13 3.13 0 0 0 6.876 10 3.13 3.13 0 0 0 10 13.124 3.13 3.13 0 0 0 13.124 10 3.13 3.13 0 0 0 10 6.876ZM19.37 10c0-1.294.012-2.576-.06-3.867-.073-1.5-.415-2.831-1.512-3.928-1.1-1.1-2.428-1.44-3.928-1.512C12.575.62 11.293.632 10.002.632 8.71.632 7.427.62 6.135.693c-1.5.073-2.831.415-3.928 1.512C1.107 3.304.768 4.633.695 6.133.623 7.427.635 8.709.635 10s-.012 2.576.06 3.867c.073 1.5.415 2.831 1.512 3.928 1.1 1.1 2.428 1.44 3.928 1.512 1.294.073 2.576.061 3.867.061 1.294 0 2.576.012 3.867-.061 1.5-.073 2.832-.415 3.929-1.512 1.099-1.099 1.439-2.428 1.511-3.928.075-1.291.061-2.573.061-3.867ZM10 14.807A4.8 4.8 0 0 1 5.193 10 4.8 4.8 0 0 1 10 5.193 4.8 4.8 0 0 1 14.807 10 4.8 4.8 0 0 1 10 14.807Zm5.004-8.688a1.121 1.121 0 0 1-1.123-1.123c0-.621.502-1.123 1.123-1.123a1.121 1.121 0 0 1 .43 2.16 1.12 1.12 0 0 1-.43.086Z"/></symbol><symbol viewBox="0 0 22 26" id="svg-ios" xmlns="http://www.w3.org/2000/svg"><path d="M17.896 13.694c-.011-1.998.894-3.504 2.722-4.614-1.022-1.465-2.57-2.27-4.608-2.426-1.93-.152-4.043 1.125-4.817 1.125-.817 0-2.686-1.072-4.157-1.072-3.035.047-6.26 2.42-6.26 7.248 0 1.427.26 2.9.782 4.418.697 1.998 3.21 6.894 5.833 6.814 1.37-.032 2.34-.972 4.125-.972 1.731 0 2.628.973 4.157.973 2.645-.039 4.919-4.489 5.58-6.493-3.547-1.672-3.357-4.898-3.357-5ZM14.817 4.76c1.486-1.764 1.351-3.37 1.307-3.947-1.312.077-2.83.894-3.694 1.899-.953 1.078-1.512 2.411-1.392 3.914 1.418.108 2.713-.621 3.78-1.866Z"/></symbol><symbol viewBox="0 0 22 24" id="svg-play" xmlns="http://www.w3.org/2000/svg"><path d="M1.56 23.25a.938.938 0 0 1-.937-.938V1.687a.938.938 0 0 1 1.39-.821l18.75 10.313a.938.938 0 0 1 0 1.642L2.012 23.134a.937.937 0 0 1-.453.116Z"/></symbol><symbol viewBox="0 0 22 24" id="svg-send" xmlns="http://www.w3.org/2000/svg"><path d="M20.74.93A.953.953 0 0 0 19.726.8L.081 10.022v1.784l8.252 3.3 5.293 8.144h1.784l5.64-21.347a.952.952 0 0 0-.31-.972Zm-6.431 20.618-4.55-7 7-7.667-1.107-1.012-7.056 7.728-6.803-2.721 17.505-8.217-4.99 18.89Z"/></symbol><symbol viewBox="0 0 18 20" id="svg-tt" xmlns="http://www.w3.org/2000/svg"><path d="M16.59 4.69A4.83 4.83 0 0 1 12.82.44V0H9.37v13.67a2.89 2.89 0 0 1-5.2 1.74 2.89 2.89 0 0 1 2.31-4.64 2.93 2.93 0 0 1 .88.13V7.4A6.33 6.33 0 0 0 2 18.1a6.34 6.34 0 0 0 10.86-4.43v-7a8.16 8.16 0 0 0 4.77 1.52v-3.4a4.85 4.85 0 0 1-1-.1h-.04Z"/></symbol><symbol viewBox="0 0 24 18" id="svg-tw" xmlns="http://www.w3.org/2000/svg"><path d="M23.25 2.133a9.46 9.46 0 0 1-2.65.717A4.57 4.57 0 0 0 22.63.337a9.27 9.27 0 0 1-2.932 1.102 4.647 4.647 0 0 0-3.371-1.44c-2.55 0-4.615 2.035-4.615 4.543a4.37 4.37 0 0 0 .119 1.036A13.158 13.158 0 0 1 2.315.829a4.485 4.485 0 0 0-.627 2.283c0 1.575.821 2.967 2.062 3.783a4.57 4.57 0 0 1-2.1-.567v.056c0 2.203 1.595 4.036 3.704 4.453-.397.106-.805.16-1.216.16-.291 0-.582-.028-.868-.085.587 1.805 2.294 3.117 4.315 3.155a9.356 9.356 0 0 1-6.835 1.88A13.063 13.063 0 0 0 7.816 18c8.501 0 13.146-6.924 13.146-12.928 0-.197-.006-.394-.015-.586a9.304 9.304 0 0 0 2.303-2.353Z"/></symbol><symbol viewBox="0 0 22 16" id="svg-yt" xmlns="http://www.w3.org/2000/svg"><path d="M21.062 2.94a2.631 2.631 0 0 0-1.857-1.859C17.568.641 11 .641 11 .641s-6.567 0-8.205.438A2.628 2.628 0 0 0 .938 2.938C.5 4.577.5 8 .5 8s0 3.422.438 5.06a2.632 2.632 0 0 0 1.857 1.859c1.638.44 8.205.44 8.205.44s6.567 0 8.206-.44a2.628 2.628 0 0 0 1.856-1.859C21.5 11.422 21.5 8 21.5 8s0-3.422-.438-5.06Zm-12.148 8.2V4.86l5.438 3.117-5.438 3.164Z"/></symbol></svg>